<svg width="21" height="31" viewBox="0 0 21 31" fill="none" xmlns="http://www.w3.org/2000/svg">
<path d="M15.277 28.8892C15.325 28.8642 15.377 28.8382 15.421 28.8112L15.435 28.8022C15.47 28.7832 15.504 28.7622 15.535 28.7412L15.575 28.7182C17.043 27.8102 18.026 26.1332 18.026 23.3352C17.9205 20.2941 16.8451 17.3665 14.957 14.9802C15.4045 14.2788 15.6355 13.4611 15.621 12.6292C15.621 10.7872 14.59 9.28822 13.295 9.22922H13.082L13.02 9.23421H12.983L12.905 9.24622L12.851 9.25722L12.805 9.26722L12.754 9.28022L12.72 9.28922C12.652 9.30844 12.5852 9.33181 12.52 9.35921H12.51C11.8989 9.65824 11.4214 10.1746 11.171 10.8072C11.0136 11.1655 10.9059 11.5437 10.851 11.9312V11.9402C10.7301 11.8792 10.5974 11.8451 10.462 11.8402H10.408C10.2907 11.8534 10.1766 11.8872 10.071 11.9402C10.0181 11.5697 9.91728 11.2077 9.77103 10.8632V10.8562C9.63779 10.4846 9.42141 10.1484 9.13839 9.87315C8.85537 9.59793 8.51321 9.39102 8.13803 9.26822C8.07057 9.25098 8.0021 9.23795 7.93303 9.22922H7.92603L7.83702 9.22021H7.63702C6.34302 9.28121 5.31103 10.7802 5.31103 12.6202C5.29727 13.4521 5.52853 14.2698 5.97602 14.9712C4.08328 17.3558 3.00515 20.2846 2.90002 23.3272C2.90002 26.0162 3.80003 27.6662 5.18103 28.6002C5.28103 28.6662 5.38103 28.7312 5.49203 28.7912C5.54603 28.8222 5.59903 28.8522 5.65203 28.8802C7.11529 29.7183 8.77225 30.1592 10.4585 30.1592C12.1448 30.1592 13.8018 29.7183 15.265 28.8802L15.277 28.8892Z" fill="white"/>
<path d="M7.41299 12.4089C7.01299 12.6249 6.83999 13.0539 6.70599 12.8089C6.63673 12.6161 6.63385 12.4057 6.6978 12.2112C6.76176 12.0166 6.88888 11.849 7.05899 11.7349C7.24597 11.6527 7.45523 11.636 7.65287 11.6875C7.85051 11.7391 8.02496 11.8558 8.14799 12.0189C8.27899 12.2669 7.81099 12.1899 7.41299 12.4089ZM13.458 12.4089C13.858 12.6249 14.032 13.0539 14.165 12.8089C14.2342 12.6161 14.2371 12.4057 14.1732 12.2112C14.1092 12.0166 13.9821 11.849 13.812 11.7349C13.6251 11.6523 13.4157 11.6354 13.218 11.687C13.0202 11.7386 12.8458 11.8555 12.723 12.0189C12.594 12.2669 13.056 12.1899 13.458 12.4089Z" fill="#1D1D1B"/>
<path d="M10.42 13.9268C9.60901 13.9268 8.96802 14.6598 8.96802 13.9618C8.96802 13.2638 9.62201 12.0308 10.434 12.0308C11.246 12.0308 11.903 13.2648 11.903 13.9618C11.903 14.6588 11.231 13.9268 10.42 13.9268Z" fill="#E95B0B"/>
<path d="M10.403 14.1318C10.727 14.1318 11.025 14.2178 11.025 14.3878C10.9985 14.5246 10.9252 14.6478 10.8177 14.7364C10.7103 14.825 10.5753 14.8735 10.436 14.8735C10.2968 14.8735 10.1618 14.825 10.0543 14.7364C9.94688 14.6478 9.87359 14.5246 9.84705 14.3878C9.84805 14.2178 10.075 14.1318 10.403 14.1318Z" fill="#E95B0B"/>
<g opacity="0.5">
<path d="M20.9381 20.8462C20.8311 17.5462 18.9741 15.6292 18.3711 14.0542C17.3601 11.4092 16.2861 9.25421 14.6441 7.93521L14.3871 7.79821C15.9291 9.16221 16.937 11.3982 17.8871 14.1472C18.4521 15.7802 20.4871 17.7682 20.5871 21.1952V21.4472C20.5881 21.4943 20.5864 21.5413 20.5821 21.5882C20.584 21.6112 20.584 21.6343 20.5821 21.6572C20.5821 21.7082 20.5731 21.7572 20.5691 21.8132V21.8672C20.5621 21.9372 20.5531 22.0072 20.5431 22.0792L20.5341 22.1402C20.5261 22.1932 20.5181 22.2472 20.5081 22.3002C20.5081 22.3272 20.4991 22.3552 20.4931 22.3832C20.4841 22.4332 20.4741 22.4832 20.4631 22.5352L20.4471 22.6132C20.4311 22.6852 20.4151 22.7562 20.3971 22.8282C20.3971 22.8452 20.3881 22.8622 20.3841 22.8802C20.3681 22.9452 20.3511 23.0102 20.3321 23.0802L20.3061 23.1702C20.2901 23.2212 20.2761 23.2702 20.2591 23.3262C20.2501 23.3572 20.2401 23.3892 20.2291 23.4212C20.2101 23.4772 20.1921 23.5332 20.1721 23.5902C20.1631 23.6162 20.1541 23.6412 20.1461 23.6682C20.1181 23.7462 20.0884 23.8239 20.0571 23.9012C20.0461 23.9292 20.0351 23.9572 20.0241 23.9852C20.0021 24.0399 19.9794 24.0952 19.9561 24.1512C19.9431 24.1842 19.9281 24.2172 19.9141 24.2512L19.8871 24.3162C20.5792 23.294 20.9466 22.0867 20.9411 20.8522L20.9381 20.8462ZM0.976051 24.1332C0.958051 24.0892 0.940051 24.0452 0.923051 24.0022L0.877051 23.8862C0.858051 23.8342 0.839051 23.7862 0.821051 23.7302C0.803051 23.6742 0.785051 23.6302 0.768051 23.5812C0.751051 23.5322 0.731051 23.4722 0.714051 23.4182C0.702051 23.3812 0.691051 23.3462 0.681051 23.3092C0.671051 23.2722 0.654051 23.2192 0.641051 23.1742C0.628051 23.1292 0.620051 23.1022 0.611051 23.0672C0.602051 23.0322 0.585051 22.9672 0.572051 22.9182C0.564051 22.8892 0.556051 22.8602 0.550051 22.8322C0.532051 22.7592 0.515051 22.6862 0.499051 22.6132L0.482051 22.5262C0.472051 22.4772 0.463051 22.4262 0.453051 22.3802C0.453051 22.3502 0.443051 22.3212 0.438051 22.2922C0.429051 22.2412 0.422051 22.1922 0.415051 22.1432C0.415051 22.1202 0.407051 22.0952 0.404051 22.0712C0.395051 22.0002 0.386051 21.9302 0.379051 21.8622C0.380978 21.8463 0.380978 21.8302 0.379051 21.8142C0.374051 21.7602 0.370051 21.7062 0.366051 21.6522V21.5842C0.367151 21.5368 0.365482 21.4894 0.361051 21.4422V21.1922C0.461051 17.7702 2.49505 15.7812 3.06105 14.1462C4.01405 11.3792 5.03205 9.12621 6.59305 7.76221L6.33905 7.90021C4.67505 9.21521 3.59105 11.3852 2.57505 14.0532C1.96805 15.6342 0.113051 17.5462 5.09159e-05 20.8462C-0.00492886 22.0691 0.355477 23.2656 1.03505 24.2822L1.02105 24.2492L0.976051 24.1332Z" fill="white"/>
</g>
<path d="M17.886 14.1501C16.938 11.4051 15.93 9.16512 14.386 7.80112C13.964 8.41812 12.186 8.75211 10.497 8.75211C8.76898 8.75211 6.95498 8.40011 6.59198 7.76611C5.03098 9.13011 4.01298 11.3831 3.05998 14.1501C2.49198 15.7831 0.45998 17.7711 0.35498 21.1981C0.415428 22.8532 0.947662 24.4564 1.88897 25.8191C2.83028 27.1817 4.14144 28.2469 5.66798 28.8891C4.02598 28.0261 2.91298 26.3261 2.91298 23.3331C3.01979 20.2925 4.09465 17.3653 5.98098 14.9781C5.53325 14.2764 5.30197 13.4584 5.31598 12.6261C5.31598 10.7461 6.39098 9.22612 7.72698 9.22612C8.88898 9.22612 9.86098 10.3971 10.084 11.9521C10.2029 11.8859 10.3368 11.8512 10.473 11.8512C10.6091 11.8512 10.743 11.8859 10.862 11.9521C11.084 10.3961 12.057 9.23012 13.217 9.23012C14.549 9.23012 15.628 10.7541 15.628 12.6301C15.6422 13.4621 15.4109 14.2798 14.963 14.9811C16.8486 17.3678 17.9228 20.2943 18.029 23.3341C18.029 26.3191 16.91 28.0271 15.277 28.8891C16.8 28.242 18.1078 27.1755 19.0483 25.8139C19.9887 24.4523 20.523 22.8516 20.589 21.1981C20.489 17.7701 18.451 15.7851 17.886 14.1501Z" fill="#1D1D1B"/>
<path d="M14.297 7.377C14.297 7.986 12.58 8.477 10.458 8.477C8.33599 8.477 6.61899 7.982 6.61899 7.377L5.66699 1.844L8.52599 4.61L10.431 0L12.338 4.61L15.197 1.844L14.297 7.377Z" fill="#F49B00"/>
<path d="M8.882 2.67183L8.075 1.42683L7.46899 2.95483C7.92199 3.39383 8.301 3.75483 8.396 3.85483C8.439 3.74383 8.639 3.27083 8.882 2.67183ZM13.403 2.95583L12.793 1.42383L11.981 2.67183C12.23 3.27183 12.425 3.74483 12.469 3.85383C12.568 3.76283 12.946 3.39583 13.402 2.95583H13.403Z" fill="#E74E0F"/>
</svg>
