<svg width="18" height="9" viewBox="0 0 18 9" fill="none" xmlns="http://www.w3.org/2000/svg">
<path d="M5.69117 0.453913C5.38877 0.183783 4.99087 -0.0168875 4.56637 0.00112251C4.14457 0.0217025 3.74657 0.160623 3.44157 0.453913C2.57137 1.29776 1.70387 2.13903 0.833767 2.98291C0.711666 3.10121 0.592268 3.21701 0.470268 3.33531C0.470268 3.33531 0.470268 3.33531 0.470268 3.33791C0.470268 3.33791 0.470268 3.33791 0.467668 3.33791C0.433168 3.37131 0.398668 3.40741 0.366768 3.44601C0.337667 3.47941 0.313768 3.51541 0.287268 3.55141C0.281868 3.55661 0.279268 3.56171 0.273968 3.56941C0.273968 3.57201 0.271267 3.57201 0.271267 3.57461C0.210266 3.66211 0.159868 3.75981 0.117468 3.86021C0.0696676 3.97081 0.0325678 4.08661 0.0166681 4.20491C0.00336819 4.28211 -0.00193233 4.35671 0.000667378 4.43131C0.00336818 4.45961 0.00336818 4.49051 0.0059679 4.51881C0.0113676 4.60881 0.0272673 4.70401 0.0510671 4.79661C0.117468 5.06931 0.250068 5.32921 0.467668 5.52211C0.475569 5.52981 0.483568 5.53501 0.491468 5.54271C1.35367 6.37881 2.21587 7.21501 3.07807 8.05111C3.20007 8.16941 3.31947 8.28521 3.44157 8.40351C3.73067 8.68401 4.15777 8.85631 4.56637 8.85631C4.95637 8.85631 5.42327 8.68911 5.69117 8.40351C5.96977 8.11031 6.17667 7.72431 6.15807 7.31271C6.13957 6.90371 5.99627 6.51781 5.69117 6.22191C5.60627 6.13961 5.52137 6.05721 5.43657 5.97491C5.81327 5.97491 6.19257 5.97491 6.56927 5.97491C7.98066 5.97491 9.39466 5.97491 10.806 5.97491C12.0343 5.97491 13.2626 5.97491 14.4909 5.97491C15.0825 5.97491 15.6767 5.98011 16.2683 5.97491C16.2763 5.97491 16.2843 5.97491 16.2922 5.97491C16.7008 5.97491 17.1279 5.80251 17.4171 5.52211C17.693 5.25201 17.8999 4.81211 17.884 4.42871C17.8654 4.03001 17.7301 3.61571 17.4171 3.33791C17.1067 3.06001 16.7246 2.88511 16.2922 2.88511C15.8014 2.88511 15.3106 2.88511 14.8199 2.88511C13.6526 2.88511 12.4826 2.88511 11.3154 2.88511C9.90402 2.88511 8.49002 2.88511 7.07867 2.88511C6.52947 2.88511 5.98297 2.88511 5.43387 2.88511C5.51877 2.80281 5.60367 2.72041 5.69117 2.63561C5.98037 2.35514 6.15807 1.94093 6.15807 1.54474C6.15807 1.16655 5.98567 0.713753 5.69117 0.453913Z" fill="white"/>
</svg>
